<svg width="33" height="30" viewBox="0 0 33 30" fill="none" xmlns="http://www.w3.org/2000/svg">
<path d="M16.5 5C17.9587 5 19.3576 5.52678 20.3891 6.46447C21.4205 7.40215 22 8.67392 22 10C22 11.3261 21.4205 12.5979 20.3891 13.5355C19.3576 14.4732 17.9587 15 16.5 15C15.0413 15 13.6424 14.4732 12.6109 13.5355C11.5795 12.5979 11 11.3261 11 10C11 8.67392 11.5795 7.40215 12.6109 6.46447C13.6424 5.52678 15.0413 5 16.5 5ZM16.5 17.5C22.5775 17.5 27.5 19.7375 27.5 22.5V25H5.5V22.5C5.5 19.7375 10.4225 17.5 16.5 17.5Z" fill="#302F35"/>
</svg>
