<svg width="38" height="39" viewBox="0 0 38 39" fill="none" xmlns="http://www.w3.org/2000/svg">
<path d="M16.625 30.4688H33.25V32.9062H16.625V30.4688ZM8.51438 31.6875L5.45063 34.8319L7.125 36.5625L11.875 31.6875L7.125 26.8125L5.43875 28.5309L8.51438 31.6875ZM16.625 18.2812H33.25V20.7188H16.625V18.2812ZM8.51438 19.5L5.45063 22.6444L7.125 24.375L11.875 19.5L7.125 14.625L5.43875 16.3434L8.51438 19.5ZM16.625 6.09375H33.25V8.53125H16.625V6.09375ZM8.51438 7.3125L5.45063 10.4569L7.125 12.1875L11.875 7.3125L7.125 2.4375L5.43875 4.15594L8.51438 7.3125Z" fill="#3E3E3E"/>
</svg>
