<svg width="37" height="35" viewBox="0 0 37 35" fill="none" xmlns="http://www.w3.org/2000/svg">
<path d="M10.7915 10.2083H9.24984C8.43209 10.2083 7.64783 10.5156 7.06959 11.0626C6.49135 11.6096 6.1665 12.3515 6.1665 13.125V26.25C6.1665 27.0235 6.49135 27.7654 7.06959 28.3124C7.64783 28.8594 8.43209 29.1667 9.24984 29.1667H23.1248C23.9426 29.1667 24.7268 28.8594 25.3051 28.3124C25.8833 27.7654 26.2082 27.0235 26.2082 26.25V24.7917" stroke="white" stroke-width="2" stroke-linecap="round" stroke-linejoin="round"/>
<path d="M24.6667 7.29167L29.2917 11.6667M31.4269 9.60312C32.0341 9.02877 32.3752 8.24977 32.3752 7.4375C32.3752 6.62523 32.0341 5.84623 31.4269 5.27187C30.8197 4.69752 29.9962 4.37484 29.1375 4.37484C28.2788 4.37484 27.4553 4.69752 26.8481 5.27187L13.875 17.5V21.875H18.5L31.4269 9.60312Z" stroke="white" stroke-width="2" stroke-linecap="round" stroke-linejoin="round"/>
</svg>
