<svg width="27" height="22" viewBox="0 0 27 22" fill="none" xmlns="http://www.w3.org/2000/svg">
<path d="M22.95 8.8H24.3V20.9H2.7V8.8H4.05V6.6C4.05 3.564 7.074 1.1 10.8 1.1C11.7585 1.1 12.6765 1.265 13.5 1.562C14.3501 1.25509 15.2701 1.09767 16.2 1.1C19.926 1.1 22.95 3.564 22.95 6.6V8.8ZM6.75 6.6V8.8H9.45V6.6C9.45 5.357 9.9765 4.224 10.827 3.3H10.8C8.5725 3.3 6.75 4.785 6.75 6.6ZM20.25 8.8V6.6C20.25 4.785 18.4275 3.3 16.2 3.3H16.173C17.0607 4.24851 17.5442 5.40718 17.55 6.6V8.8H20.25ZM13.5 4.158C12.6765 4.763 12.15 5.632 12.15 6.6V8.8H14.85V6.6C14.85 5.632 14.3235 4.763 13.5 4.158Z" fill="#333333"/>
</svg>
