<svg width="66" height="67" viewBox="0 0 66 67" fill="none" xmlns="http://www.w3.org/2000/svg">
<path fill-rule="evenodd" clip-rule="evenodd" d="M38.456 7.09634C38.6953 7.56813 38.7557 8.17392 38.874 9.3855C39.0995 11.6747 39.2122 12.8193 39.6852 13.4502C39.9799 13.8419 40.3716 14.1474 40.8203 14.3357C41.269 14.524 41.7588 14.5883 42.24 14.5222C43.01 14.4189 43.89 13.6903 45.6445 12.233C46.5712 11.4597 47.036 11.0745 47.5337 10.9125C48.1677 10.7069 48.8536 10.7416 49.4642 11.0103C49.9455 11.2224 50.3717 11.6523 51.216 12.5122L53.6745 15.0079C54.5215 15.8678 54.945 16.2977 55.154 16.7862C55.4186 17.4061 55.4528 18.1024 55.2502 18.746C55.0907 19.2513 54.7113 19.723 53.9522 20.6638C52.514 22.4477 51.7963 23.3383 51.6918 24.1227C51.6274 24.611 51.6914 25.1078 51.8774 25.5628C52.0633 26.0178 52.3646 26.4148 52.7505 26.7134C53.3692 27.1935 54.4995 27.308 56.7572 27.5369C57.948 27.657 58.5448 27.7184 59.0122 27.9613C59.602 28.2717 60.0611 28.7883 60.3048 29.4157C60.5 29.9098 60.5 30.5184 60.5 31.7356V35.2642C60.5 36.4814 60.5 37.09 60.3075 37.5813C60.0631 38.2107 59.6018 38.7285 59.0095 39.0386C58.5448 39.2815 57.948 39.3429 56.7545 39.4629C54.4995 39.6918 53.372 39.8063 52.7505 40.2865C52.3646 40.5856 52.0636 40.9832 51.8782 41.4387C51.6927 41.8942 51.6293 42.3915 51.6945 42.8799C51.799 43.6616 52.5168 44.5549 53.9522 46.336C54.7113 47.2768 55.0907 47.7458 55.2502 48.2539C55.4528 48.8974 55.4186 49.5937 55.154 50.2136C54.945 50.7022 54.5215 51.1321 53.6745 51.9919L51.216 54.4849C50.369 55.3475 49.9455 55.7774 49.4642 55.9868C48.8536 56.2554 48.1677 56.2901 47.5337 56.0845C47.036 55.9226 46.5712 55.5373 45.6445 54.7668C43.8872 53.3096 43.01 52.581 42.24 52.4777C41.7588 52.4115 41.269 52.4758 40.8203 52.6641C40.3716 52.8524 39.9799 53.1579 39.6852 53.5497C39.2122 54.1778 39.0995 55.3224 38.874 57.6143C38.7557 58.8259 38.6953 59.4317 38.456 59.9035C38.1513 60.5043 37.6422 60.9725 37.0233 61.2212C36.5365 61.4166 35.937 61.4166 34.738 61.4166H31.262C30.063 61.4166 29.4635 61.4166 28.9795 61.2212C28.3595 60.973 27.8494 60.5048 27.544 59.9035C27.3047 59.4317 27.2443 58.8259 27.126 57.6143C26.9005 55.3252 26.7878 54.1806 26.3148 53.5497C26.0203 53.1584 25.6291 52.8531 25.1809 52.6649C24.7327 52.4766 24.2435 52.412 23.7627 52.4777C22.99 52.581 22.1127 53.3096 20.3555 54.7668C19.4288 55.5401 18.964 55.9254 18.4663 56.0873C17.8323 56.2929 17.1464 56.2582 16.5358 55.9896C16.0545 55.7774 15.6283 55.3475 14.784 54.4877L12.3255 51.9919C11.4785 51.1321 11.055 50.7022 10.846 50.2136C10.5814 49.5937 10.5472 48.8974 10.7497 48.2539C10.9092 47.7486 11.2888 47.2768 12.0477 46.336C13.486 44.5521 14.2038 43.6616 14.3055 42.8771C14.3702 42.3891 14.3066 41.8924 14.1211 41.4375C13.9356 40.9825 13.6349 40.5854 13.2495 40.2865C12.6307 39.8063 11.5005 39.6918 9.24275 39.4629C8.052 39.3429 7.45525 39.2815 6.98775 39.0386C6.39801 38.7282 5.93889 38.2115 5.69525 37.5841C5.5 37.09 5.5 36.4814 5.5 35.2642V31.7356C5.5 30.5184 5.5 29.9098 5.6925 29.4185C5.93694 28.7891 6.39819 28.2713 6.9905 27.9613C7.45525 27.7184 8.052 27.657 9.2455 27.5369C11.5005 27.308 12.6307 27.1935 13.2495 26.7134C13.6354 26.4148 13.9367 26.0178 14.1226 25.5628C14.3086 25.1078 14.3726 24.611 14.3083 24.1227C14.2038 23.3383 13.4833 22.4477 12.0477 20.661C11.2888 19.7203 10.9092 19.2513 10.7497 18.7432C10.5472 18.0996 10.5814 17.4033 10.846 16.7834C11.055 16.2977 11.4785 15.865 12.3255 15.0051L14.784 12.5122C15.631 11.6523 16.0545 11.2196 16.5358 11.0103C17.1464 10.7416 17.8323 10.7069 18.4663 10.9125C18.964 11.0745 19.4288 11.4597 20.3555 12.2302C22.1127 13.6875 22.99 14.4161 23.76 14.5222C24.2418 14.5885 24.7324 14.524 25.1817 14.3352C25.6309 14.1464 26.0229 13.8401 26.3175 13.4474C26.785 12.8193 26.9005 11.6747 27.126 9.38271C27.2443 8.17392 27.3047 7.56813 27.544 7.09354C27.8493 6.49381 28.3583 6.02669 28.9767 5.77867C29.4635 5.58325 30.063 5.58325 31.262 5.58325H34.738C35.937 5.58325 36.5365 5.58325 37.0205 5.77867C37.6405 6.02681 38.1506 6.49505 38.456 7.09634ZM33 44.6666C35.9174 44.6666 38.7153 43.4901 40.7782 41.3959C42.8411 39.3018 44 36.4615 44 33.4999C44 30.5383 42.8411 27.698 40.7782 25.6039C38.7153 23.5097 35.9174 22.3333 33 22.3333C30.0826 22.3333 27.2847 23.5097 25.2218 25.6039C23.1589 27.698 22 30.5383 22 33.4999C22 36.4615 23.1589 39.3018 25.2218 41.3959C27.2847 43.4901 30.0826 44.6666 33 44.6666Z" fill="white"/>
</svg>
