<svg width="118" height="121" viewBox="0 0 118 121" fill="none" xmlns="http://www.w3.org/2000/svg">
<path d="M58.9999 10.0833C31.8599 10.0833 9.83325 32.6699 9.83325 60.4999C9.83325 88.3299 31.8599 110.917 58.9999 110.917C86.1399 110.917 108.167 88.3299 108.167 60.4999C108.167 32.6699 86.1399 10.0833 58.9999 10.0833ZM58.9999 30.2499C68.4891 30.2499 76.2083 38.1653 76.2083 47.8958C76.2083 57.6262 68.4891 65.5416 58.9999 65.5416C49.5108 65.5416 41.7916 57.6262 41.7916 47.8958C41.7916 38.1653 49.5108 30.2499 58.9999 30.2499ZM58.9999 100.833C49.0191 100.833 37.2191 96.6991 28.8116 86.3133C37.4247 79.3871 48.0542 75.623 58.9999 75.623C69.9456 75.623 80.5751 79.3871 89.1883 86.3133C80.7808 96.6991 68.9808 100.833 58.9999 100.833Z" fill="#333333"/>
<path d="M95.9999 77.1074C84.9627 77.1074 76.0156 86.4612 76.0156 98C76.0156 109.539 84.9627 118.893 95.9999 118.893C107.037 118.893 115.984 109.539 115.984 98C115.984 86.4612 107.037 77.1074 95.9999 77.1074ZM107.531 96.5165C106.584 97.6547 105.339 98.4773 103.949 98.8826C102.56 99.2879 101.087 99.2579 99.7138 98.7964L89.8316 110.679C89.3234 111.278 88.6094 111.643 87.845 111.695C87.0807 111.746 86.3277 111.48 85.7501 110.954C85.1724 110.428 84.8167 109.685 84.7604 108.887C84.7041 108.088 84.9518 107.298 85.4495 106.69L95.3468 94.7959C94.7419 93.4778 94.5091 92.0068 94.6756 90.5554C94.842 89.1039 95.4009 87.7321 96.2866 86.6009C97.1723 85.4698 98.3482 84.626 99.6763 84.1687C101.004 83.7114 102.43 83.6594 103.785 84.0189L99.997 88.6362L101.234 92.4024L104.979 93.1643L108.774 88.5355C109.298 89.8549 109.46 91.3011 109.241 92.7114C109.021 94.1216 108.43 95.4399 107.533 96.518L107.531 96.5165Z" fill="#DD4AA7"/>
</svg>
