<svg width="20" height="18" viewBox="0 0 20 18" fill="none" xmlns="http://www.w3.org/2000/svg">
<path d="M16 13.9292C14.89 13.9292 14 14.6617 14 15.5753C14 16.0118 14.2107 16.4305 14.5858 16.7392C14.9609 17.0479 15.4696 17.2213 16 17.2213C16.5304 17.2213 17.0391 17.0479 17.4142 16.7392C17.7893 16.4305 18 16.0118 18 15.5753C18 15.1387 17.7893 14.72 17.4142 14.4114C17.0391 14.1027 16.5304 13.9292 16 13.9292ZM0 0.760986V2.40702H2L5.6 8.65371L4.24 10.6701C4.09 10.9005 4 11.1721 4 11.4602C4 11.8968 4.21071 12.3154 4.58579 12.6241C4.96086 12.9328 5.46957 13.1062 6 13.1062H18V11.4602H6.42C6.3537 11.4602 6.29011 11.4385 6.24322 11.3999C6.19634 11.3613 6.17 11.309 6.17 11.2544C6.17 11.2133 6.18 11.1804 6.2 11.1557L7.1 9.81416H14.55C15.3 9.81416 15.96 9.4685 16.3 8.96646L19.88 3.64154C19.95 3.50986 20 3.36995 20 3.23003C20 3.01176 19.8946 2.80242 19.7071 2.64807C19.5196 2.49373 19.2652 2.40702 19 2.40702H4.21L3.27 0.760986M6 13.9292C4.89 13.9292 4 14.6617 4 15.5753C4 16.0118 4.21071 16.4305 4.58579 16.7392C4.96086 17.0479 5.46957 17.2213 6 17.2213C6.53043 17.2213 7.03914 17.0479 7.41421 16.7392C7.78929 16.4305 8 16.0118 8 15.5753C8 15.1387 7.78929 14.72 7.41421 14.4114C7.03914 14.1027 6.53043 13.9292 6 13.9292Z" fill="white"/>
</svg>
