<svg width="49" height="48" viewBox="0 0 49 48" fill="none" xmlns="http://www.w3.org/2000/svg">
<path fill-rule="evenodd" clip-rule="evenodd" d="M17.1868 6.5C17.7585 5.32 18.9916 4.5 20.4167 4.5H28.5834C30.0085 4.5 31.2396 5.32 31.8133 6.5C33.2077 6.512 34.296 6.574 35.2678 6.946C36.4279 7.39054 37.4369 8.14602 38.1792 9.126C38.9285 10.114 39.2817 11.38 39.7635 13.122L41.2785 18.566L41.8501 20.248L41.8991 20.308C43.7387 22.616 42.8628 26.048 41.111 32.91C39.9963 37.276 39.441 39.458 37.779 40.73C36.1171 42 33.8202 42 29.2265 42H19.7736C15.1798 42 12.883 42 11.221 40.73C9.55912 39.458 9.00174 37.276 7.88904 32.91C6.13729 26.048 5.26141 22.616 7.10095 20.308L7.14995 20.248L7.72162 18.566L9.23654 13.122C9.72041 11.38 10.0736 10.112 10.8209 9.124C11.5635 8.14476 12.5724 7.38999 13.7323 6.946C14.7041 6.574 15.7903 6.51 17.1868 6.5ZM17.1909 9.506C15.8393 9.52 15.2962 9.57 14.847 9.742C14.2222 9.98136 13.6788 10.3882 13.279 10.916C12.9197 11.39 12.7074 12.052 12.1153 14.186L10.9515 18.364C13.034 18 15.8801 18 19.7715 18H29.2265C33.12 18 35.964 18 38.0465 18.36L36.8848 14.182C36.2927 12.048 36.0804 11.386 35.721 10.912C35.3213 10.3842 34.7779 9.97736 34.153 9.738C33.7039 9.566 33.1608 9.516 31.8092 9.502C31.5193 10.0997 31.0624 10.6046 30.4914 10.9583C29.9205 11.3119 29.2589 11.4997 28.5834 11.5H20.4167C19.7414 11.4999 19.08 11.3124 18.509 10.9591C17.9381 10.6059 17.4811 10.1033 17.1909 9.506Z" fill="#D10E8A"/>
</svg>
