<svg width="31" height="36" viewBox="0 0 31 36" fill="none" xmlns="http://www.w3.org/2000/svg">
<path d="M0 36V3.6C0 2.61 0.3038 1.7628 0.9114 1.0584C1.519 0.354 2.24853 0.0012 3.1 0H27.9C28.7525 0 29.4825 0.3528 30.0901 1.0584C30.6977 1.764 31.001 2.6112 31 3.6V25.2C31 26.19 30.6967 27.0378 30.0901 27.7434C29.4836 28.449 28.7535 28.8012 27.9 28.8H6.2L0 36ZM10.9662 22.05L15.5 18.855L20.0337 22.05L18.8325 16.065L22.8625 12.015L17.5537 11.52L15.5 5.85L13.4462 11.52L8.1375 12.015L12.1675 16.065L10.9662 22.05Z" fill="#333333"/>
</svg>
