<svg width="76" height="75" viewBox="0 0 76 75" fill="none" xmlns="http://www.w3.org/2000/svg">
<g clip-path="url(#clip0_2_51)">
<path d="M38 6.25C20.52 6.25 6.33331 20.25 6.33331 37.5C6.33331 54.75 20.52 68.75 38 68.75C55.48 68.75 69.6666 54.75 69.6666 37.5C69.6666 20.25 55.48 6.25 38 6.25ZM38 18.75C44.1116 18.75 49.0833 23.6562 49.0833 29.6875C49.0833 35.7188 44.1116 40.625 38 40.625C31.8883 40.625 26.9166 35.7188 26.9166 29.6875C26.9166 23.6562 31.8883 18.75 38 18.75ZM38 62.5C31.5716 62.5 23.9716 59.9375 18.5566 53.5C24.1041 49.2069 30.9502 46.8738 38 46.8738C45.0498 46.8738 51.8959 49.2069 57.4433 53.5C52.0283 59.9375 44.4283 62.5 38 62.5Z" fill="#333333"/>
</g>
<defs>
<clipPath id="clip0_2_51">
<rect width="76" height="75" fill="white"/>
</clipPath>
</defs>
</svg>
